Coordinates
version=1
nRows=8
nColumns=40
inDegrees=yes

Units are S.I. units (second, meters, Newtons, ...)
If the header above contains a line with 'inDegrees', this indicates whether rotational values are in degrees (yes) or radians (no).

endheader
time	pelvis_tilt	pelvis_list	pelvis_rotation	pelvis_tx	pelvis_ty	pelvis_tz	hip_flexion_r	hip_adduction_r	hip_rotation_r	knee_angle_r	knee_angle_r_beta	ankle_angle_r	subtalar_angle_r	mtp_angle_r	hip_flexion_l	hip_adduction_l	hip_rotation_l	knee_angle_l	knee_angle_l_beta	ankle_angle_l	subtalar_angle_l	mtp_angle_l	lumbar_extension	lumbar_bending	lumbar_rotation	arm_flex_r	arm_add_r	arm_rot_r	elbow_flex_r	pro_sup_r	wrist_flex_r	wrist_dev_r	arm_flex_l	arm_add_l	arm_rot_l	elbow_flex_l	pro_sup_l	wrist_flex_l	wrist_dev_l
      2.00000000	     -4.59601285	     -2.55258879	     -0.29680729	     -0.30312247	      0.93696578	     -1.02544939	     31.46801446	     -6.31692276	     -5.18911714	    104.93362776	      1.83143730	     -9.06835499	      0.00000000	      0.00000000	     12.97901713	      2.08646581	     -6.59765978	     16.53362911	      0.28856627	     -1.59479278	      0.00000000	      0.00000000	    -11.62243008	      0.62868387	      2.08131069	     53.57946515	    -21.51079338	     15.01991636	     42.71617030	     86.35707009	      0.00000000	      0.00000000	     52.47094603	    -30.72905647	     13.63532668	     60.86176806	     86.34017296	      0.00000000	      0.00000000
      2.00500000	     -4.73762150	     -2.56985254	     -0.30976391	     -0.30378128	      0.93670858	     -1.02533935	     31.49581309	     -6.22179505	     -5.23199755	    104.80534048	      1.82919826	     -9.06428770	      0.00000000	      0.00000000	     13.31549106	      2.02125011	     -6.60654029	     16.85493614	      0.29417413	     -1.36720840	      0.00000000	      0.00000000	    -11.58532443	      0.63237476	      2.13076681	     54.23270800	    -21.49189385	     15.40031155	     42.32151693	     86.30906953	      0.00000000	      0.00000000	     53.29508089	    -30.83182953	     14.18277189	     60.33047908	     86.41478930	      0.00000000	      0.00000000
      2.01000000	     -4.85519536	     -2.57714478	     -0.38664394	     -0.30434590	      0.93644207	     -1.02511708	     31.49036255	     -6.07584818	     -5.19408770	    104.66255670	      1.82670622	     -8.99332838	      0.00000000	      0.00000000	     13.59398269	      1.94537827	     -6.73659703	     17.08502990	      0.29819002	     -1.34707085	      0.00000000	      0.00000000	    -11.56498447	      0.61059690	      2.22279829	     54.87694263	    -21.35005937	     15.47249177	     41.87088513	     86.24933382	      0.00000000	      0.00000000	     54.15393340	    -30.90871229	     14.71001536	     59.80068068	     86.45750369	      0.00000000	      0.00000000
      2.01500000	     -4.86946999	     -2.62850461	     -0.38488234	     -0.30479368	      0.93640918	     -1.02495513	     31.34915173	     -5.93736903	     -5.26838335	    104.49739818	      1.82382366	     -8.96094861	      0.00000000	      0.00000000	     13.74091403	      1.84104410	     -6.80658675	     17.28159740	      0.30162077	     -1.34939441	      0.00000000	      0.00000000	    -11.65600031	      0.64361183	      2.27743238	     55.46847893	    -21.29168390	     15.63521070	     41.51190692	     86.20426294	      0.00000000	      0.00000000	     54.85319120	    -30.98496243	     15.07784864	     59.44307820	     86.47537760	      0.00000000	      0.00000000
      2.02000000	     -4.95027517	     -2.60816459	     -0.41075923	     -0.30534881	      0.93617610	     -1.02481475	     31.28076064	     -5.85852830	     -5.27357557	    104.34103061	      1.82109453	     -8.94733450	      0.00000000	      0.00000000	     14.01229726	      1.79599905	     -6.85891569	     17.57952914	      0.30682066	     -1.36132336	      0.00000000	      0.00000000	    -11.67918795	      0.58844705	      2.35987447	     55.98787825	    -21.27111414	     15.73360754	     41.22051629	     86.11424400	      0.00000000	      0.00000000	     55.78659353	    -31.02055333	     15.69429816	     58.84008463	     86.51793117	      0.00000000	      0.00000000
      2.02500000	     -5.06687055	     -2.54625101	     -0.45447163	     -0.30593928	      0.93584941	     -1.02471623	     31.29375565	     -5.84125243	     -5.23709679	    104.26229264	      1.81972029	     -8.88983765	      0.00000000	      0.00000000	     14.26701688	      1.80780900	     -7.04193149	     17.75325076	      0.30985268	     -1.35963533	      0.00000000	      0.00000000	    -11.67139439	      0.49788932	      2.40353408	     56.63851331	    -21.14716259	     15.85184195	     40.79499159	     86.08806878	      0.00000000	      0.00000000	     56.53864094	    -31.11230874	     16.18256938	     58.46366078	     86.50729045	      0.00000000	      0.00000000
      2.03000000	     -5.23868186	     -2.43367389	     -0.50566370	     -0.30664892	      0.93535833	     -1.02462518	     31.39351948	     -5.87746601	     -5.14182029	    104.21099052	      1.81882490	     -8.84444380	      0.00000000	      0.00000000	     14.68959685	      1.85440887	     -7.19794012	     18.12404958	      0.31632434	     -1.34017953	      0.00000000	      0.00000000	    -11.61240239	      0.35532353	      2.42851927	     57.27029618	    -21.11749743	     16.19751666	     40.48965186	     85.97275785	      0.00000000	      0.00000000	     57.38496151	    -31.26537077	     16.77018071	     57.95845829	     86.57848209	      0.00000000	      0.00000000
      2.03500000	     -5.36506363	     -2.45412931	     -0.52357574	     -0.30723328	      0.93500649	     -1.02444478	     31.37652108	     -5.75830931	     -5.18844252	    104.08163123	      1.81656716	     -8.80927676	      0.00000000	      0.00000000	     14.98971907	      1.76265781	     -7.36138872	     18.36939395	      0.32060641	     -1.28679336	      0.00000000	      0.00000000	    -11.59978949	      0.34400307	      2.48870263	     57.78368350	    -21.13451291	     16.48056214	     40.28365081	     85.88047823	      0.00000000	      0.00000000	     58.13348535	    -31.31809716	     17.16096348	     57.57447922	     86.59113840	      0.00000000	      0.00000000
